<svg xmlns="http://www.w3.org/2000/svg" viewBox="280 230 620 270"><path fill="#3F3E20" d="M659.67,422.29V301.74H579.45a111.9,111.9,0,0,0-33.62,5.07c-28.48,8.95-46.6,36.89-46.6,36.89h0s-18.06-27.92-46.6-36.89A112,112,0,0,0,419,301.74H338.78V541.55H419a112,112,0,0,1,33.63,5.08c28.54,9,46.6,35,46.6,35h0s15.93-22.93,41.38-33.16q-.2-3.45-.2-7A119.4,119.4,0,0,1,659.67,422.29Z"></path><path fill="#3F3E20" d="M630.44,541.55h29.23V512.12A29.36,29.36,0,0,0,630.44,541.55Z"></path><path fill="#3F3E20" d="M593.31,541.55h21.35a45.16,45.16,0,0,1,45-45.21V475.19A66.44,66.44,0,0,0,593.31,541.55Z"></path><path fill="#3F3E20" d="M556.19,541.55c0,.8,0,1.6,0,2.39a113.75,113.75,0,0,1,21.31-2.35v0a82.24,82.24,0,0,1,82.14-82.14V438.07A103.6,103.6,0,0,0,556.19,541.55Z"></path></svg>
